<svg width="40" height="31" viewBox="0 0 40 31" fill="none" xmlns="http://www.w3.org/2000/svg">
<path d="M20.9861 12.9674C20.9861 14.1576 20.2569 14.8426 18.9722 14.8426H17.2847V11.0922H18.9792C20.2569 11.0922 20.9861 11.7703 20.9861 12.9674ZM24.2847 17.2991C24.2847 17.8734 24.7847 18.2471 25.5694 18.2471C26.5694 18.2471 27.3194 17.6174 27.3194 16.7317V16.1989L25.6875 16.3027C24.7639 16.365 24.2847 16.704 24.2847 17.2991ZM40 3.32143V27.6786C40 29.5123 38.5069 31 36.6667 31H3.33333C1.49306 31 0 29.5123 0 27.6786V3.32143C0 1.48772 1.49306 0 3.33333 0H36.6667C38.5069 0 40 1.48772 40 3.32143ZM8.875 11.5004C9.45833 11.5489 10.0417 11.2098 10.4097 10.7808C10.7708 10.3379 11.0069 9.74286 10.9444 9.14085C10.4306 9.16161 9.79167 9.47991 9.42361 9.92277C9.09028 10.3033 8.80556 10.9192 8.875 11.5004ZM13.0833 16.6556C13.0694 16.6417 11.7222 16.1297 11.7083 14.5797C11.6944 13.2857 12.7708 12.6629 12.8194 12.6283C12.2083 11.7288 11.2639 11.6319 10.9375 11.6112C10.0903 11.5627 9.36806 12.0886 8.96528 12.0886C8.55556 12.0886 7.94445 11.6319 7.27778 11.6458C6.40972 11.6596 5.59722 12.1509 5.15972 12.9328C4.25 14.4967 4.92361 16.8078 5.80556 18.081C6.23611 18.7107 6.75694 19.4027 7.4375 19.375C8.08333 19.3473 8.34028 18.9598 9.11806 18.9598C9.90278 18.9598 10.125 19.375 10.8056 19.3681C11.5139 19.3542 11.9514 18.7384 12.3889 18.1087C12.8681 17.3891 13.0694 16.6971 13.0833 16.6556ZM22.4861 12.9605C22.4861 11.1199 21.2014 9.86049 19.3681 9.86049H15.8125V19.2989H17.2847V16.0743H19.3194C21.1806 16.0743 22.4861 14.8011 22.4861 12.9605ZM28.7361 14.6004C28.7361 13.2373 27.6389 12.3585 25.9583 12.3585C24.3958 12.3585 23.2431 13.2511 23.2014 14.469H24.5278C24.6389 13.8877 25.1806 13.5071 25.9167 13.5071C26.8194 13.5071 27.3194 13.9223 27.3194 14.6973V15.2163L25.4861 15.327C23.7778 15.4308 22.8542 16.1297 22.8542 17.3406C22.8542 18.5654 23.8056 19.375 25.1736 19.375C26.0972 19.375 26.9514 18.9114 27.3403 18.171H27.3681V19.3058H28.7292V14.6004H28.7361ZM35.8333 12.4484H34.3403L32.6111 18.0257H32.5833L30.8542 12.4484H29.3056L31.7986 19.3196L31.6667 19.7348C31.4444 20.4406 31.0764 20.7174 30.4236 20.7174C30.3056 20.7174 30.0833 20.7036 29.9931 20.6967V21.8315C30.0764 21.8591 30.4444 21.8661 30.5556 21.8661C31.9931 21.8661 32.6667 21.3194 33.2569 19.6656L35.8333 12.4484Z" fill="black"/>
</svg>
