<svg width="136" height="31" viewBox="0 0 136 31" fill="none" xmlns="http://www.w3.org/2000/svg">
<path d="M34.1944 13.0643C33.5764 13.0643 32.8958 13.5279 32.8958 14.635H35.4444C35.4444 13.5279 34.7986 13.0643 34.1944 13.0643ZM26.0417 13.2442C25.4722 13.2442 25.1181 13.4449 24.8611 13.7286L24.875 17.3821C25.1181 17.6382 25.4653 17.8458 26.0417 17.8458C26.9514 17.8458 27.5625 16.8562 27.5625 15.5346C27.5625 14.2475 26.9375 13.2373 26.0417 13.2442ZM36.6667 0H3.33333C1.49306 0 0 1.48772 0 3.32143V27.6786C0 29.5123 1.49306 31 3.33333 31H36.6667C38.5069 31 40 29.5123 40 27.6786V3.32143C40 1.48772 38.5069 0 36.6667 0ZM8.48611 17.2368C8.48611 19.0083 7.07639 20.0116 5.02083 20.0254C4.17361 20.0254 3.24306 19.8594 2.32639 19.465V17.1192C3.15972 17.5621 4.20833 17.9011 5.02778 17.9011C5.57639 17.9011 5.97222 17.7558 5.97222 17.2991C5.97222 16.1228 2.22222 16.5656 2.22222 13.8462C2.22222 12.1025 3.55556 11.0645 5.55556 11.0645C6.375 11.0645 7.1875 11.1891 8.00695 11.5143V13.8254C7.25694 13.4241 6.30556 13.1958 5.55556 13.1958C5.03472 13.1958 4.71528 13.348 4.71528 13.7286C4.71528 14.8357 8.48611 14.3098 8.48611 17.2368ZM13.2639 13.3203H11.3889V16.8147C11.3889 18.2609 12.9514 17.8112 13.2639 17.6866V19.6864C12.9375 19.8663 12.3403 20.0116 11.5347 20.0116C10.0694 20.0116 8.97222 18.9391 8.97222 17.4859L8.98611 9.60446L11.3958 9.09241V11.2237H13.2639V13.3203ZM18.4028 13.4864C18.0903 13.3826 17.1042 13.2373 16.5208 13.9984V19.8386H14.0556V11.2237H16.1875L16.3403 11.9502C16.9167 10.8915 18.0694 11.106 18.3958 11.2237H18.4028V13.4864ZM21.4653 19.8386H18.9861V11.2237H21.4653V19.8386ZM21.4653 9.95045L18.9861 10.4763V8.47656L21.4653 7.95067V9.95045ZM26.6111 20.0185C25.75 20.0185 25.2222 19.6518 24.8681 19.3958L24.8611 22.1775L22.3958 22.6964V11.2237H24.5694L24.6944 11.8326C25.0347 11.5212 25.6597 11.0645 26.625 11.0645C28.3542 11.0645 29.9861 12.6214 29.9861 15.4792C29.9861 18.6 28.375 20.0116 26.6111 20.0185V20.0185ZM37.75 16.4549H32.9236C33.0347 17.6036 33.8819 17.9426 34.8403 17.9426C35.8194 17.9426 36.5903 17.735 37.2639 17.396V19.375C36.5903 19.7417 35.7083 20.0116 34.5278 20.0116C32.125 20.0116 30.4444 18.51 30.4444 15.5484C30.4444 13.0435 31.8681 11.0576 34.2153 11.0576C36.5556 11.0576 37.7778 13.0435 37.7778 15.5623C37.7778 15.8045 37.7569 16.3165 37.75 16.4549V16.4549Z" fill="black"/>
<path d="M129.535 26.1078C129.535 26.5783 129.215 26.9174 128.757 26.9174C128.285 26.9174 127.979 26.5576 127.979 26.1078C127.979 25.658 128.285 25.2982 128.757 25.2982C129.215 25.2982 129.535 25.658 129.535 26.1078ZM107.951 25.2982C107.458 25.2982 107.174 25.658 107.174 26.1078C107.174 26.5576 107.458 26.9174 107.951 26.9174C108.403 26.9174 108.708 26.5783 108.708 26.1078C108.701 25.658 108.403 25.2982 107.951 25.2982ZM116.111 25.2775C115.736 25.2775 115.507 25.5196 115.451 25.8795H116.778C116.715 25.485 116.472 25.2775 116.111 25.2775ZM123.597 25.2982C123.125 25.2982 122.84 25.658 122.84 26.1078C122.84 26.5576 123.125 26.9174 123.597 26.9174C124.069 26.9174 124.375 26.5783 124.375 26.1078C124.375 25.658 124.069 25.2982 123.597 25.2982ZM130.951 27.1042C130.951 27.125 130.972 27.1388 130.972 27.1804C130.972 27.2011 130.951 27.215 130.951 27.2565C130.931 27.2772 130.931 27.2911 130.917 27.3118C130.896 27.3326 130.882 27.3464 130.84 27.3464C130.819 27.3672 130.806 27.3672 130.764 27.3672C130.743 27.3672 130.729 27.3672 130.688 27.3464C130.667 27.3464 130.653 27.3257 130.632 27.3118C130.611 27.2911 130.597 27.2772 130.597 27.2565C130.576 27.2219 130.576 27.2011 130.576 27.1804C130.576 27.1458 130.576 27.125 130.597 27.1042C130.597 27.0696 130.618 27.0489 130.632 27.0281C130.653 27.0074 130.667 27.0074 130.688 26.9935C130.722 26.9728 130.743 26.9728 130.764 26.9728C130.799 26.9728 130.819 26.9728 130.84 26.9935C130.875 27.0143 130.896 27.0143 130.917 27.0281C130.938 27.042 130.931 27.0696 130.951 27.1042ZM130.799 27.2011C130.833 27.2011 130.833 27.1804 130.854 27.1804C130.875 27.1596 130.875 27.1458 130.875 27.125C130.875 27.1042 130.875 27.0904 130.854 27.0696C130.833 27.0696 130.819 27.0489 130.778 27.0489H130.667V27.2911H130.722V27.1942H130.743L130.819 27.2911H130.875L130.799 27.2011V27.2011ZM136 3.32143V27.6786C136 29.5123 134.507 31 132.667 31H99.3333C97.4931 31 96 29.5123 96 27.6786V3.32143C96 1.48772 97.4931 0 99.3333 0H132.667C134.507 0 136 1.48772 136 3.32143ZM100.444 12.9812C100.444 18.2748 104.757 22.565 110.063 22.565C111.951 22.565 113.806 21.9975 115.375 20.9665C110.313 16.8632 110.347 9.12009 115.375 5.01674C113.806 3.97879 111.951 3.4183 110.063 3.4183C104.757 3.41138 100.444 7.70848 100.444 12.9812ZM116 20.5098C120.896 16.704 120.875 9.28616 116 5.4596C111.125 9.28616 111.104 16.7109 116 20.5098ZM106.118 25.7895C106.118 25.1875 105.722 24.7931 105.097 24.7723C104.778 24.7723 104.438 24.8692 104.208 25.2221C104.042 24.9384 103.757 24.7723 103.361 24.7723C103.097 24.7723 102.833 24.8692 102.625 25.146V24.8415H102.056V27.381H102.625C102.625 26.0732 102.451 25.2913 103.25 25.2913C103.958 25.2913 103.819 25.9971 103.819 27.381H104.368C104.368 26.1147 104.194 25.2913 104.993 25.2913C105.701 25.2913 105.563 25.9833 105.563 27.381H106.132V25.7895H106.118ZM109.236 24.8415H108.688V25.146C108.5 24.9176 108.236 24.7723 107.875 24.7723C107.16 24.7723 106.611 25.3397 106.611 26.1078C106.611 26.8828 107.16 27.4433 107.875 27.4433C108.236 27.4433 108.5 27.3118 108.688 27.0696V27.3879H109.236V24.8415ZM112.049 26.6129C112.049 25.575 110.458 26.0455 110.458 25.5612C110.458 25.1667 111.285 25.229 111.743 25.485L111.972 25.0353C111.319 24.6132 109.875 24.6201 109.875 25.6027C109.875 26.5922 111.465 26.177 111.465 26.6406C111.465 27.0766 110.528 27.042 110.028 26.696L109.785 27.1319C110.563 27.6578 112.049 27.5471 112.049 26.6129V26.6129ZM114.507 27.2565L114.354 26.7859C114.09 26.9312 113.507 27.0904 113.507 26.5022V25.3536H114.417V24.8415H113.507V24.0665H112.938V24.8415H112.41V25.3466H112.938V26.5022C112.938 27.7201 114.139 27.4987 114.507 27.2565V27.2565ZM115.431 26.3292H117.34C117.34 25.2083 116.826 24.7654 116.132 24.7654C115.396 24.7654 114.868 25.3121 114.868 26.1009C114.868 27.5194 116.438 27.7547 117.215 27.0835L116.951 26.6683C116.41 27.1112 115.59 27.0696 115.431 26.3292V26.3292ZM119.535 24.8415C119.215 24.7031 118.729 24.717 118.479 25.146V24.8415H117.91V27.381H118.479V25.9487C118.479 25.146 119.139 25.2498 119.368 25.3674L119.535 24.8415V24.8415ZM120.271 26.1078C120.271 25.319 121.076 25.0629 121.708 25.5266L121.972 25.0768C121.167 24.4471 119.701 24.7931 119.701 26.1147C119.701 27.4848 121.257 27.7616 121.972 27.1527L121.708 26.7029C121.069 27.1527 120.271 26.8828 120.271 26.1078ZM124.903 24.8415H124.333V25.146C123.757 24.3848 122.257 24.8138 122.257 26.1078C122.257 27.4364 123.813 27.817 124.333 27.0696V27.3879H124.903V24.8415V24.8415ZM127.243 24.8415C127.076 24.7585 126.479 24.6408 126.188 25.146V24.8415H125.639V27.381H126.188V25.9487C126.188 25.1875 126.813 25.2359 127.076 25.3674L127.243 24.8415V24.8415ZM130.042 23.8105H129.493V25.146C128.924 24.3917 127.417 24.7931 127.417 26.1078C127.417 27.4502 128.979 27.81 129.493 27.0696V27.3879H130.042V23.8105ZM130.569 18.6138V18.9321H130.625V18.6138H130.757V18.5585H130.438V18.6138H130.569V18.6138ZM131.028 27.1804C131.028 27.1458 131.028 27.1042 131.007 27.0696C130.986 27.0489 130.972 27.0143 130.951 26.9935C130.931 26.9728 130.896 26.9589 130.875 26.9382C130.84 26.9382 130.799 26.9174 130.764 26.9174C130.743 26.9174 130.708 26.9382 130.667 26.9382C130.632 26.9589 130.611 26.9728 130.59 26.9935C130.556 27.0143 130.535 27.0489 130.535 27.0696C130.514 27.1042 130.514 27.1458 130.514 27.1804C130.514 27.2011 130.514 27.2357 130.535 27.2772C130.535 27.298 130.556 27.3326 130.59 27.3533C130.611 27.3741 130.625 27.3879 130.667 27.4087C130.701 27.4295 130.743 27.4295 130.764 27.4295C130.799 27.4295 130.84 27.4295 130.875 27.4087C130.896 27.3879 130.931 27.3741 130.951 27.3533C130.972 27.3326 130.986 27.298 131.007 27.2772C131.028 27.2357 131.028 27.2011 131.028 27.1804ZM131.25 18.5516H131.153L131.042 18.7937L130.931 18.5516H130.833V18.9252H130.889V18.6415L131 18.8837H131.076L131.174 18.6415V18.9252H131.25V18.5516V18.5516ZM131.556 12.9812C131.556 7.70848 127.243 3.41138 121.938 3.41138C120.049 3.41138 118.194 3.97879 116.625 5.00982C121.632 9.11317 121.708 16.877 116.625 20.9596C118.194 21.9975 120.063 22.558 121.938 22.558C127.243 22.565 131.556 18.2748 131.556 12.9812V12.9812Z" fill="black"/>
<path d="M80.6458 13.7908C80.6458 13.7908 81.1736 16.365 81.2917 16.9047H78.9722C79.2014 16.2888 80.0833 13.8946 80.0833 13.8946C80.0694 13.9154 80.3125 13.265 80.4514 12.8636L80.6458 13.7908ZM88 3.32143V27.6786C88 29.5123 86.5069 31 84.6667 31H51.3333C49.4931 31 48 29.5123 48 27.6786V3.32143C48 1.48772 49.4931 0 51.3333 0H84.6667C86.5069 0 88 1.48772 88 3.32143ZM58.5903 20.7036L62.9792 9.96429H60.0278L57.2986 17.2991L57 15.8114L56.0278 10.8708C55.8681 10.1857 55.375 9.99196 54.7639 9.96429H50.2708L50.2222 10.1788C51.3194 10.4556 52.2986 10.8569 53.1528 11.3621L55.6389 20.7036H58.5903ZM65.1458 20.7174L66.8958 9.96429H64.1042L62.3611 20.7174H65.1458V20.7174ZM74.8611 17.2022C74.875 15.9775 74.125 15.0433 72.5208 14.2752C71.5417 13.7839 70.9444 13.4518 70.9444 12.9467C70.9583 12.49 71.4514 12.0194 72.5486 12.0194C73.4583 11.9987 74.125 12.2132 74.625 12.4277L74.875 12.5453L75.2569 10.2203C74.7083 10.0058 73.8333 9.76362 72.7569 9.76362C70 9.76362 68.0625 11.2306 68.0486 13.3203C68.0278 14.8634 69.4375 15.7214 70.4931 16.2404C71.5694 16.7663 71.9375 17.1123 71.9375 17.5759C71.9236 18.2955 71.0625 18.6277 70.2639 18.6277C69.1528 18.6277 68.5556 18.4547 67.6458 18.0533L67.2778 17.8804L66.8889 20.2953C67.5417 20.5929 68.75 20.8558 70 20.8696C72.9306 20.8766 74.8403 19.4304 74.8611 17.2022ZM84.6667 20.7174L82.4167 9.96429H80.2569C79.5903 9.96429 79.0833 10.158 78.7986 10.8569L74.6528 20.7174H77.5833C77.5833 20.7174 78.0625 19.3888 78.1667 19.1051H81.75C81.8333 19.4857 82.0833 20.7174 82.0833 20.7174H84.6667Z" fill="black"/>
</svg>
