<svg width="40" height="31" viewBox="0 0 40 31" fill="none" xmlns="http://www.w3.org/2000/svg">
<path d="M12.9375 15.6522C12.9375 16.4964 12.2639 17.14 11.4097 17.14C10.7708 17.14 10.2986 16.7801 10.2986 16.102C10.2986 15.2578 10.9583 14.5797 11.8056 14.5797C12.4514 14.5797 12.9375 14.9741 12.9375 15.6522ZM5.59028 12.2962H5.26389C5.15972 12.2962 5.05556 12.3654 5.04167 12.483L4.74306 14.3306L5.3125 14.3098C6.07639 14.3098 6.66667 14.206 6.80556 13.3272C6.96528 12.4 6.375 12.2962 5.59028 12.2962ZM25.3125 12.2962H25C24.875 12.2962 24.7917 12.3654 24.7778 12.483L24.4861 14.3306L25.0417 14.3098C25.9444 14.3098 26.5694 14.1022 26.5694 13.0643C26.5625 12.3308 25.9028 12.2962 25.3125 12.2962ZM40 3.32143V27.6786C40 29.5123 38.5069 31 36.6667 31H3.33333C1.49306 31 0 29.5123 0 27.6786V3.32143C0 1.48772 1.49306 0 3.33333 0H36.6667C38.5069 0 40 1.48772 40 3.32143ZM8.90972 12.6906C8.90972 11.2375 7.78472 10.7531 6.5 10.7531H3.72222C3.54861 10.7531 3.375 10.8915 3.36111 11.0783L2.22222 18.1433C2.20139 18.2817 2.30556 18.4201 2.44444 18.4201H3.76389C3.95139 18.4201 4.125 18.2194 4.14583 18.0257L4.45833 16.185C4.52778 15.6868 5.375 15.8598 5.70833 15.8598C7.69444 15.8598 8.90972 14.6835 8.90972 12.6906ZM14.7569 13.2996H13.4375C13.1736 13.2996 13.1597 13.6801 13.1458 13.867C12.7431 13.2788 12.1597 13.175 11.5 13.175C9.79861 13.175 8.5 14.6627 8.5 16.3027C8.5 17.652 9.34722 18.5308 10.7014 18.5308C11.3264 18.5308 12.1042 18.1917 12.5417 17.7074C12.5069 17.8112 12.4722 18.0326 12.4722 18.1364C12.4722 18.2955 12.5417 18.4132 12.6944 18.4132H13.8889C14.0764 18.4132 14.2361 18.2125 14.2708 18.0187L14.9792 13.5694C15 13.4379 14.8958 13.2996 14.7569 13.2996ZM17.5694 20.0739L21.9931 13.6663C22.0278 13.6317 22.0278 13.5971 22.0278 13.5487C22.0278 13.431 21.9236 13.3065 21.8056 13.3065H20.4722C20.3542 13.3065 20.2292 13.3757 20.1597 13.4795L18.3194 16.1781L17.5556 13.5833C17.5 13.431 17.3472 13.3065 17.1736 13.3065H15.875C15.7569 13.3065 15.6528 13.431 15.6528 13.5487C15.6528 13.6317 17.0069 17.479 17.125 17.8458C16.9375 18.1087 15.7014 19.8248 15.7014 20.0324C15.7014 20.1569 15.8056 20.2538 15.9236 20.2538H17.2569C17.3819 20.2469 17.5 20.1777 17.5694 20.0739ZM28.6319 12.6906C28.6319 11.2375 27.5069 10.7531 26.2222 10.7531H23.4653C23.2778 10.7531 23.1042 10.8915 23.0833 11.0783L21.9583 18.1364C21.9444 18.2748 22.0486 18.4132 22.1806 18.4132H23.6042C23.7431 18.4132 23.8472 18.3094 23.8819 18.1917L24.1944 16.185C24.2639 15.6868 25.1111 15.8598 25.4444 15.8598C27.4167 15.8598 28.6319 14.6835 28.6319 12.6906ZM34.4792 13.2996H33.1597C32.8958 13.2996 32.8819 13.6801 32.8611 13.867C32.4792 13.2788 31.8889 13.175 31.2153 13.175C29.5139 13.175 28.2153 14.6627 28.2153 16.3027C28.2153 17.652 29.0625 18.5308 30.4167 18.5308C31.0625 18.5308 31.8403 18.1917 32.2569 17.7074C32.2361 17.8112 32.1875 18.0326 32.1875 18.1364C32.1875 18.2955 32.2569 18.4132 32.4097 18.4132H33.6111C33.7986 18.4132 33.9583 18.2125 33.9931 18.0187L34.7014 13.5694C34.7222 13.4379 34.6181 13.2996 34.4792 13.2996ZM37.7778 10.9953C37.7778 10.8569 37.6736 10.7531 37.5556 10.7531H36.2708C36.1667 10.7531 36.0625 10.8362 36.0486 10.94L34.9236 18.1364L34.9028 18.171C34.9028 18.2955 35.0069 18.4132 35.1458 18.4132H36.2917C36.4653 18.4132 36.6389 18.2125 36.6528 18.0187L37.7778 11.0161V10.9953ZM31.5278 14.5797C30.6806 14.5797 30.0208 15.2509 30.0208 16.102C30.0208 16.7732 30.5069 17.14 31.1458 17.14C31.9792 17.14 32.6528 16.5033 32.6528 15.6522C32.6597 14.9741 32.1736 14.5797 31.5278 14.5797Z" fill="black"/>
</svg>
